# xmcd CD database file
#
# Track frame offsets:
#	183
#	18020
#	39583
#	65945
#	87108
#	125688
#	155545
#
# Disc length: 2431 seconds
#
# Revision: 0
# Processed by: cddbd v1.5.1PL2 Copyright (c) Steve Scherf et al.
# Submitted via: CDex 1.51
#
DISCID=56097d07
DTITLE=Michal Urbaniak - Michal Urbaniak
DYEAR=1981
DGENRE=Jazz
TTITLE0=Bad Times
TTITLE1=Early Morning Love
TTITLE2=Dancing Dreams
TTITLE3=Something Special
TTITLE4=The other Side
TTITLE5=North One
TTITLE6=French Kiss (wk)
EXTD=YEAR: 1981
EXTT0=
EXTT1=
EXTT2=
EXTT3=
EXTT4=
EXTT5=
EXTT6=
PLAYORDER=
